<?xml version="1.0" encoding="UTF-8"?><svg xmlns="http://www.w3.org/2000/svg" xmlns:xlink="http://www.w3.org/1999/xlink" height="194.5" preserveAspectRatio="xMidYMid meet" version="1.0" viewBox="5.4 231.1 497.5 194.5" width="497.5" zoomAndPan="magnify"><g fill="#94E2FF" id="change1_1"><path d="M489,310.3c-2-1.3,4.7-2.7,7.7-5.3c3-2.7-18.3-0.7-21-3.3c-2.7-2.7,14.7-1.3,19.6-2s-4.3-8.7-8.9-12.7 c-4.7-4,0.7-5.3,2.7-10.2c1.5-3.6-6.6-2.1-10.8-0.9c3.8-1.7,10-5.2,6.2-6.2c-5.3-1.3,6.7-4.7,10-7.3s-3.3-3.3-0.3-8 c3-4.7-19,0.7-12.3-1.3s15.3-12.7,11.3-10.7s-9.3-0.7-6-3.3c3.3-2.7-4-8-12-4s-177.3,23.3-180.7,21.3c-3.3-2,9.3-11.3-4.7-11.3 S155,264,155,264h-5.3L14.3,320c-8.9,3.7,11.3,3,4.7,7s-0.7,11.3,6,8s-9.3,12.7-2.7,12c6.7-0.7-11.3,18-8,22s16.7-6.7,10,13.3 s4,34,12.7,24.7s42-13.3,53.3-15.3s41.3-5.3,14.7-5.3S41,403,83.7,385s169.3,18,170,14s66.7-1.3,79.3-2.7s30.7-3.3,24.7-6 s29.3-4,34.7-5.9c5.3-1.9,14.7-12.4,8-9.5s-73.3,16-104.7,5.3c-14.9-5.1,25.5-7.1,72.3-7.9l0,0c-13,1.7-62.4,4.3-55.7,5.3 c6.5,1,49.2-1.2,53.8-2.7c2.5-0.8,7-2.1,8.1-2.7c13.2-0.2,26.8-0.3,39.7-0.3c6.9,0.5,15.9,1.1,15.5,2.9c-0.8,3.3,11.2,2.9,11.5,0 c0.1-1-3.2-2.1-7.9-2.9c27.1,0,47.6,0.3,48.8,0.3c4,0,7.3-4,6.7-8c-0.7-4,3.3-10,2.7-14.7c-0.7-4.7-18.7-5.3-8.7-6.7 c10-1.3,6.7-5.3,10.7-6.7s-2-7.3,2-10s-4-4,1.9-6.3C502.9,317.7,491,311.7,489,310.3z" fill="inherit"/><path d="M51,298.3c0,0,101.3-44,132-48.3s14.7-11.7-8-3.7s-127.3,49.3-134.7,52C33,301,40.5,302.8,51,298.3z" fill="inherit"/><path d="M23,311.7c6.3-0.3,13-5.7,14.4-7.3C40,301.3,23.3,306,16,308S16.7,312,23,311.7z" fill="inherit"/><path d="M33.7,414.3c-4.6,6.7-4.7,11.3,1.7,10c6.3-1.3,9-15.7,15.7-18.3C57.7,403.3,37.8,408.3,33.7,414.3z" fill="inherit"/><path d="M15.2,377c-3.2,2-5.2,3.5-4.5,10.8s6-1.8,8.5-5.5S18,375.3,15.2,377z" fill="inherit"/><path d="M10.6,360.5c-2.4,2-4.1,7.8-1.1,5.2C13,362.8,13,358.5,10.6,360.5z" fill="inherit"/><path d="M310,247c3.3-1.3,9.3-4.7,14.7-6c5.3-1.3-5-3-10.5,0s-11.3-0.1-10.5,1.8C304.7,245.2,306.7,248.3,310,247z" fill="inherit"/><path d="M421.5,384.2c-7-1.8-45.9,4.7-52.5,6.5c-1.5,0.4-2.2,3.5,3,1.8s39.5-4.2,46-3S428.5,386,421.5,384.2z" fill="inherit"/><path d="M224.7,397.3c-6.3-2-61.1-12.2-68.1-13.3c-3.2-0.5,2.1,2.3,10.6,3.5s42.5,8.1,45.5,10.7s7,3.6,10,3.8 c3,0.2-3-2-3-2l-6.7-3.8l12.6,4.5l3.4-1.2C228.9,399.6,231,399.3,224.7,397.3z" fill="inherit"/></g></svg>