<?xml version="1.0" encoding="UTF-8"?><svg xmlns="http://www.w3.org/2000/svg" xmlns:xlink="http://www.w3.org/1999/xlink" height="232.9" preserveAspectRatio="xMidYMid meet" version="1.0" viewBox="-0.2 2.9 235.3 232.9" width="235.3" zoomAndPan="magnify"><g><g><g><g><g opacity=".7"><g><g><g id="change1_1"><path d="M213.5,153.7c-2.1,4.5-4.3,9.1-6.3,13.4c-2.3,4.6-5.5,8.2-8.8,11.4c-3.4,3.2-6.7,6.3-10,10 c-4,4.7-9.1,8.4-14.5,11.4c-5.4,3.1-11,5.7-16.7,8.6c-10.5,5.3-22.2,9-34.4,10.3c-12.2,1.2-24.8,0.2-36.4-4 c-5.4-1.9-10.6-4.2-15.6-6.8c-4.9-2.7-9.6-5.6-14-8.9c-4.4-3.2-8.5-6.9-12.3-10.7c-3.8-3.8-7.3-7.9-10.3-12.2 c-3.1-4.3-5.9-8.8-8.2-13.6c-2.3-4.7-4.3-9.6-5.9-14.6c-1.5-5-2.6-10.2-3.3-15.3c-0.7-5.2-0.8-10.5-0.7-15.7 c0.5-12.2,3.1-24.9,7.9-36.8C28.7,68.4,35.6,57.4,43.6,48c2.9-3.4,7-7.4,11.8-11.3c4.8-3.9,10.5-7.5,16.4-10.6 c11.8-6.3,24.3-9.8,31.9-12.3c-10.4,1.9-20.7,5.1-30.6,9.5c-4.9,2.2-9.6,4.8-14.2,7.7c-4.5,2.9-8.9,6-12.8,9.5 C62.3,24,84.9,13.1,108.5,10.9c11.8-1.2,23.8-0.4,35.4,2.3c11.6,2.6,22.6,7.3,32.7,13.4C157.9,14.8,136,9,114.3,9.7 c-21.7,0.6-43,7.6-60.7,20.1C35.9,42.3,21.8,59.9,13.5,80.2c-8.3,20.3-10.8,43.2-7.1,65.4c-3.2-12.7-4.1-26.3-2.6-39.9 c1.4-13.6,5.5-27.1,12-39.6c6.4-12.4,15.3-23.7,25.9-33c10.6-9.3,22.9-16.6,36.1-21.3c13.2-4.8,27.1-7,40.9-6.7 c13.8,0.3,27.4,3,39.9,7.9c12.5,4.9,24,11.9,34,20.3c10,8.4,18.6,18.2,25.4,28.9c4.2,6.4,8.3,14.1,11.2,20.1 c-5-11.9-11.9-23.3-20.2-33.5c-8.4-10.2-18.5-19.2-29.8-26.5C167.7,15.2,155,9.8,141.5,6.7c-13.4-3.1-27.5-3.8-41.4-2.1 c-13.9,1.8-27.5,6.2-40,12.9c-12.4,6.7-23.7,15.9-32.9,26.7C18.2,55,11,67.5,6.4,80.8c-2.3,6.6-4,13.4-5.1,20.3 c-1.1,6.8-1.5,13.7-1.3,20.5c0.2,12.5,2.7,25.1,7,37c4.5,11.9,10.8,23.3,19.1,33.3c16.3,20.2,40.1,34.8,66.2,40.1 c14.1,3.2,28.9,3.8,43.3,1.8c14.8-2.1,29.3-7.1,42.4-14.6c13.1-7.5,24.6-17.5,33.8-29.3c4.1-5.2,8.6-11.8,12.3-19.2 c3.8-7.4,6.8-15.6,8.6-23.5c1.8-7.9,2.4-15.5,1.9-21.7c-0.1-1.5-0.3-3-0.5-4.3c-0.2-1.3-0.4-2.6-0.8-3.7 c-0.7-2.2-1.5-4-2.4-5.1c-0.1,2-0.1,4-0.2,6.1c-0.1,2-0.2,4.1-0.3,6.2c-0.2,2.1-0.4,4.1-0.7,6.1c-0.4,2-0.7,3.9-1.2,5.8 c0-1.5-0.1-3.1-0.2-4.7c0-0.8-0.1-1.6-0.1-2.5c0-0.8-0.1-1.7-0.1-2.5c-0.1,0.8-0.2,1.6-0.3,2.4c-0.1,0.8-0.3,1.6-0.5,2.4 c-0.3,1.6-0.5,3.2-0.6,4.7c0.1-1.2,0.1-2.5,0-3.6c-0.1-1.1-0.2-2-0.5-2.5c-0.8,3.7-0.8,9.2-1.3,12.2c-0.1,0.9-0.2,3.4-0.7,6 c-0.2,1.3-0.4,2.6-0.7,3.7c-0.3,1.1-0.6,2-0.9,2.5c1-6.2,1.9-13.9,1.1-19c-0.5,2-0.8,4-1.6,5.8c0-0.6,0.1-1.4,0.1-2.2 c0.1-0.8,0.1-1.7,0.2-2.5c0.1-1.7,0.2-3.2-0.2-3.9c-0.9,4.9-1.5,9.3-3.2,14.2c-0.4,1-0.7,2-1,2.9c-0.4,0.9-0.7,1.9-1.1,2.8 c-0.7,1.9-1.5,3.6-2.1,5.6c1.5-4.6,3.2-10.8,3-14.3c-0.5,1-0.9,2-1.2,3.1l-0.5,1.6c-0.2,0.5-0.3,1.1-0.5,1.6 c0-0.3-0.1-0.5-0.2-0.6c-0.3,0.9-1,2.1-1.3,3.1c-0.2-0.1-0.5,0.1-0.6-0.2c0.1,0.1,0.3,0.2,0.4,0.2" fill="#3AAFAF"/></g><g id="change1_2"><path d="M229.6,152.1c-0.4,1.3-0.9,2.7-1.5,4.2c-0.6,1.5-1.1,3-1.8,4.5c-0.7,1.5-1.3,3-2.1,4.3 c-0.7,1.3-1.4,2.6-2.1,3.6" fill="#3AAFAF"/></g><path d="M1.9,115.9c0,0,0-1.1,0-3.2c0-1,0.1-2.3,0.2-3.8 c0-0.8,0.1-1.6,0.1-2.4c0.1-0.9,0.2-1.8,0.3-2.8c0.1-1,0.2-2,0.3-3.1c0.2-1.1,0.3-2.2,0.5-3.4c0.3-2.4,0.9-4.9,1.5-7.6 c1.3-5.4,3.1-11.4,5.6-17.7c5.1-12.7,13.7-26.7,26.3-39.1c6.3-6.1,13.6-11.8,21.7-16.7c1-0.6,2.1-1.2,3.1-1.7l1.6-0.9 l1.6-0.8c1.1-0.5,2.1-1.1,3.2-1.6c1.1-0.5,2.2-1,3.3-1.5L73,9l1.7-0.7c1.1-0.4,2.3-0.9,3.4-1.3c1.2-0.4,2.3-0.8,3.5-1.2 l1.7-0.6l1.8-0.5c1.2-0.3,2.4-0.7,3.6-1c1.2-0.3,2.4-0.6,3.6-0.8l1.8-0.4l1.8-0.3c1.2-0.2,2.5-0.4,3.7-0.7l3.7-0.5l1.9-0.2 l1.9-0.2l3.8-0.3l3.8-0.1c10.1-0.3,20.2,0.8,30.1,3c19.7,4.6,37.8,14.4,52,27c7.2,6.2,13.4,13.2,18.7,20.4 c5.3,7.2,9.7,14.6,13.1,22c3.5,7.3,6.2,14.5,8.3,21.3c2.1,6.8,3.5,13.1,4.9,18.7" fill="none"/></g><path d="M65.4,19c0,0,0.1,0,0.3-0.1c0.2-0.1,0.4-0.2,0.8-0.4 c0.7-0.3,1.7-0.8,2.9-1.4c2.6-1.2,6.4-2.9,11.3-4.6c4.9-1.7,11-3.4,18-4.7c7-1.2,15-1.9,23.6-1.7c8.6,0.3,17.8,1.5,27.1,4.1 c4.7,1.3,9.3,2.9,14,4.8c4.6,2,9.3,4.2,13.7,6.8c4.5,2.6,8.9,5.4,13.1,8.7c4.2,3.2,8.3,6.6,12.1,10.4c7.6,7.5,14.4,15.9,20,25" fill="none"/></g></g></g></g></g></g></svg>